<svg width="682" height="232" viewBox="0 0 682 232" fill="none" xmlns="http://www.w3.org/2000/svg">
<rect x="329" y="43" width="286" height="125" fill="black"/>
<rect x="15" width="317" height="217" fill="#D9D9D9"/>
<path d="M677 105.5C677 137.182 650.884 163 618.5 163C586.116 163 560 137.182 560 105.5C560 73.8182 586.116 48 618.5 48C650.884 48 677 73.8182 677 105.5Z" fill="#D9D9D9" stroke="black" stroke-width="10"/>
<path d="M672 105.186C672 134.354 648.047 158 618.5 158C588.953 158 565 134.354 565 105.186C565 76.0172 580.953 114 610.5 114C644.5 112.5 672 76.0172 672 105.186Z" fill="#4B9BE5"/>
<path d="M15 129C15 129 64.7038 139.247 91.2125 141.055C117.721 142.863 332 129 332 129V217H15V129Z" fill="#4B9BE5"/>
<path d="M15 0V217H332V0" stroke="black" stroke-width="30"/>
<rect x="164" y="33" width="21" height="38" fill="#D9D9D9"/>
<path d="M129.5 153H219L223.588 181.1C225.376 192.053 216.922 202 205.823 202H142.391C131.22 202 122.747 191.93 124.656 180.923L129.5 153Z" fill="#D9D9D9"/>
<path d="M142.121 79.3755C142.916 74.5447 147.092 71 151.988 71H198.357C203.32 71 207.533 74.6408 208.252 79.552L219 153H130L142.121 79.3755Z" fill="#00AE26"/>
<circle cx="354.5" cy="165.5" r="22.5" fill="#FFA800"/>
<circle cx="219.5" cy="108.5" r="22.5" fill="#FFA800"/>
<circle cx="606.5" cy="143.5" r="22.5" fill="#FFA800"/>
<path d="M347.352 174V156.545H354.631C355.938 156.545 357.031 156.73 357.912 157.099C358.798 157.469 359.463 157.986 359.906 158.651C360.355 159.315 360.58 160.085 360.58 160.96C360.58 161.625 360.44 162.219 360.162 162.741C359.884 163.259 359.5 163.687 359.011 164.028C358.523 164.369 357.957 164.608 357.315 164.744V164.915C358.02 164.949 358.67 165.139 359.267 165.486C359.869 165.832 360.352 166.315 360.716 166.935C361.08 167.548 361.261 168.276 361.261 169.116C361.261 170.054 361.023 170.892 360.545 171.631C360.068 172.364 359.378 172.943 358.474 173.369C357.571 173.79 356.474 174 355.185 174H347.352ZM351.571 170.599H354.179C355.094 170.599 355.767 170.426 356.199 170.08C356.636 169.733 356.855 169.25 356.855 168.631C356.855 168.182 356.75 167.795 356.54 167.472C356.33 167.142 356.031 166.889 355.645 166.713C355.259 166.531 354.795 166.44 354.256 166.44H351.571V170.599ZM351.571 163.722H353.906C354.366 163.722 354.776 163.645 355.134 163.491C355.491 163.338 355.77 163.116 355.969 162.827C356.173 162.537 356.276 162.187 356.276 161.778C356.276 161.193 356.068 160.733 355.653 160.398C355.239 160.062 354.679 159.895 353.974 159.895H351.571V163.722Z" fill="black"/>
<path d="M227.536 105.869H223.275C223.218 105.432 223.101 105.037 222.925 104.685C222.749 104.332 222.516 104.031 222.226 103.781C221.936 103.531 221.593 103.341 221.195 103.21C220.803 103.074 220.368 103.006 219.891 103.006C219.044 103.006 218.314 103.213 217.701 103.628C217.093 104.043 216.624 104.642 216.294 105.426C215.971 106.21 215.809 107.159 215.809 108.273C215.809 109.432 215.973 110.403 216.303 111.188C216.638 111.966 217.107 112.554 217.709 112.952C218.317 113.344 219.036 113.54 219.865 113.54C220.331 113.54 220.755 113.48 221.135 113.361C221.522 113.241 221.86 113.068 222.15 112.841C222.445 112.608 222.686 112.327 222.874 111.997C223.067 111.662 223.201 111.284 223.275 110.864L227.536 110.889C227.462 111.662 227.238 112.423 226.863 113.173C226.493 113.923 225.985 114.608 225.337 115.227C224.689 115.841 223.9 116.33 222.968 116.693C222.042 117.057 220.979 117.239 219.78 117.239C218.201 117.239 216.786 116.892 215.536 116.199C214.292 115.5 213.309 114.483 212.587 113.148C211.865 111.812 211.505 110.187 211.505 108.273C211.505 106.352 211.871 104.724 212.604 103.389C213.337 102.054 214.328 101.04 215.578 100.347C216.828 99.6534 218.229 99.3068 219.78 99.3068C220.837 99.3068 221.814 99.4545 222.712 99.75C223.61 100.04 224.4 100.466 225.081 101.028C225.763 101.585 226.317 102.27 226.743 103.082C227.169 103.895 227.434 104.824 227.536 105.869Z" fill="black"/>
<path d="M602.339 152H597.805L603.694 134.545H609.31L615.2 152H610.665L606.566 138.943H606.43L602.339 152ZM601.734 145.131H611.211V148.335H601.734V145.131Z" fill="black"/>
</svg>
